#!OML:ASF H:\ManfredObstacles\Project 1\Capture day 1\Session 1\Male.ASF
:FULLY-SPECIFIED
:DEGREES
419
root 0.723727 16.4895 -19.2547 -174.976 1.44259 -175.499
lowerback -6.96956 -0.90327 -0.584398
upperback 4.31147 -1.17803 1.60554
thorax 8.51589 -0.621184 1.86499
lowerneck 0.578242 -1.96481 -6.17693
upperneck 11.7105 -2.72954 8.77418
head 3.57649 -0.999173 3.63481
rclavicle 6.75868e-015 2.72335e-014
rhumerus -35.0474 -25.5569 -71.5647
rradius 22.2121
rwrist 41.7275
rhand -0.498352 -8.01891
rfingers 7.12502
rthumb 25.113 -36.3874
lclavicle 6.75868e-015 2.72335e-014
lhumerus -30.7449 18.0564 80.3635
lradius 24.8943
lwrist -23.6329
lhand -13.1345 8.72468
lfingers 7.12502
lthumb 12.9635 38.302
rfemur -20.4492 -6.60877 22.7466
rtibia 67.9018
rfoot -6.49205 11.4884
rtoes -5.07236
lfemur -18.8205 4.577 -18.3062
ltibia 26.9918
lfoot -3.5582 -15.6972
ltoes 5.07144
420
root 0.708332 16.4872 -19.4392 -174.898 0.83294 -175.036
lowerback -6.99754 -1.25086 -0.243485
upperback 4.22713 -1.69552 1.86686
thorax 8.45969 -0.859723 1.87582
lowerneck 0.93443 -1.90118 -5.81004
upperneck 11.3125 -2.6172 8.19623
head 3.38042 -0.975199 3.39702
rclavicle 1.02374e-014 -5.76476e-015
rhumerus -36.1116 -26.8602 -69.9567
rradius 21.9013
rwrist 42.8121
rhand -0.645501 -8.01869
rfingers 7.12502
rthumb 24.972 -36.4068
lclavicle 1.02374e-014 -5.76476e-015
lhumerus -29.7176 16.7214 81.4964
lradius 25.7856
lwrist -22.6998
lhand -12.9723 8.70004
lfingers 7.12502
lthumb 13.1199 38.2673
rfemur -22.7308 -6.55162 23.463
rtibia 67.8577
rfoot -8.09967 11.2284
rtoes -1.90901
lfemur -18.6331 4.43598 -17.8292
ltibia 27.7635
lfoot -4.35995 -16.2625
ltoes 4.25457
421
root 0.69724 16.4751 -19.624 -174.939 0.183399 -174.526
lowerback -6.95276 -1.60505 0.144684
upperback 4.14464 -2.22178 2.12778
thorax 8.36021 -1.09865 1.86031
lowerneck 1.13333 -1.85157 -5.76376
upperneck 11.0964 -2.54921 8.0802
head 3.2764 -0.955615 3.35527
rclavicle -1.88348e-014 -1.80894e-014
rhumerus -37.6322 -28.5924 -68.0542
rradius 22.0492
rwrist 44.2863
rhand -0.256608 -7.76124
rfingers 7.12502
rthumb 25.3446 -36.0971
lclavicle -1.88348e-014 -1.80894e-014
lhumerus -28.7567 15.8765 82.3301
lradius 26.4391
lwrist -22.2677
lhand -12.8494 8.47554
lfingers 7.12502
lthumb 13.2384 38.0352
rfemur -24.5988 -6.505 24.2539
rtibia 67.2638
rfoot -10.1174 10.1489
rtoes -1.79048
lfemur -18.3524 4.2509 -17.2712
ltibia 28.6287
lfoot -5.14539 -16.8055
ltoes 4.03802
422
root 0.69093 16.4563 -19.803 -174.833 -0.544455 -174.06
lowerback -7.01604 -1.77728 0.474376
upperback 4.01834 -2.74807 2.4001
thorax 8.27958 -1.44788 1.87258
lowerneck 1.24033 -1.78428 -5.9322
upperneck 10.9552 -2.46875 8.17679
head 3.21333 -0.925763 3.41511
rclavicle 2.16675e-014 -1.74931e-014
rhumerus -38.4538 -28.7473 -67.1006
rradius 21.7447
rwrist 43.8963
rhand 0.159887 -7.88386
rfingers 7.12502
rthumb 25.7435 -36.1625
lclavicle 2.16675e-014 -1.74931e-014
lhumerus -27.8928 15.0795 83.1105
lradius 27.1247
lwrist -21.9373
lhand -12.7882 8.20908
lfingers 7.12502
lthumb 13.2973 37.7649
rfemur -26.4046 -6.57029 25.0809
rtibia 66.2077
rfoot -12.0437 8.33076
rtoes -3.22772
lfemur -18.2848 4.15007 -16.7664
ltibia 29.4559
lfoot -5.71465 -17.3846
ltoes 4.6906
423
root 0.686658 16.4465 -19.9792 -174.572 -1.29071 -173.634
lowerback -7.19659 -2.06934 0.841921
upperback 3.86054 -3.19877 2.61022
thorax 8.22349 -1.65558 1.81974
lowerneck 1.21189 -1.76417 -5.84169
upperneck 10.6718 -2.45017 8.16
head 3.13069 -0.925803 3.39287
rclavicle -3.89121e-014 5.32743e-014
rhumerus -39.2931 -29.0072 -66.3172
rradius 21.7163
rwrist 43.5503
rhand 0.576182 -8.09051
rfingers 7.12502
rthumb 26.1421 -36.3108
lclavicle -3.89121e-014 5.32743e-014
lhumerus -27.1585 14.0966 83.7944
lradius 27.8599
lwrist -21.4356
lhand -12.785 8.15079
lfingers 7.12502
lthumb 13.3004 37.7064
rfemur -28.3526 -6.48383 25.7803
rtibia 64.6169
rfoot -13.0993 6.76734
rtoes 2.4775
lfemur -18.4018 4.09144 -16.3109
ltibia 30.2405
lfoot -6.81248 -18.057
ltoes 2.51152
424
root 0.684958 16.4403 -20.1543 -174.366 -2.00533 -173.297
lowerback -7.33224 -2.35197 1.1237
upperback 3.73478 -3.6263 2.78634
thorax 8.17577 -1.85648 1.78269
lowerneck 1.11441 -1.76547 -5.71248
upperneck 10.1601 -2.40992 7.74882
head 3.33095 -0.950357 3.58553
rclavicle 3.76945e-014 -1.94809e-014
rhumerus -39.9859 -29.0858 -65.8029
rradius 21.7745
rwrist 43.021
rhand 0.714881 -8.17535
rfingers 7.12502
rthumb 26.2749 -36.3759
lclavicle 3.76945e-014 -1.94809e-014
lhumerus -26.3331 13.2116 84.3674
lradius 28.323
lwrist -20.9604
lhand -12.7382 8.23213
lfingers 7.12502
lthumb 13.3456 37.7848
rfemur -30.056 -6.39473 26.3258
rtibia 62.6073
rfoot -14.3835 5.51109
rtoes 6.62716
lfemur -18.3582 3.96962 -15.922
ltibia 30.8163
lfoot -7.56409 -18.6036
ltoes 2.3921
425
root 0.689908 16.4255 -20.3308 -174.347 -2.76615 -173.056
lowerback -7.35971 -2.66561 1.21659
upperback 3.69222 -4.0809 2.97398
thorax 8.16844 -2.0837 1.86203
lowerneck 1.2275 -1.71279 -5.66208
upperneck 9.65504 -2.35181 7.68743
head 3.12657 -0.941996 3.54515
rclavicle 3.05631e-015 3.65764e-014
rhumerus -40.4792 -28.9262 -65.5346
rradius 21.8652
rwrist 42.34
rhand 0.904677 -8.17468
rfingers 7.12502
rthumb 26.4566 -36.348
lclavicle 3.05631e-015 3.65764e-014
lhumerus -25.4323 12.5005 84.8818
lradius 28.521
lwrist -20.6695
lhand -12.7175 8.29367
lfingers 7.12502
lthumb 13.3655 37.845
rfemur -31.351 -6.52378 26.8394
rtibia 60.0971
rfoot -15.3375 4.24117
rtoes 1.23208
lfemur -18.03 3.72867 -15.5792
ltibia 31.2046
lfoot -7.65457 -19.0237
ltoes 5.03095
426
root 0.694931 16.4239 -20.507 -174.295 -3.38123 -172.982
lowerback -7.43263 -2.89869 1.18406
upperback 3.65765 -4.40751 3.10994
thorax 8.19851 -2.25145 1.97288
lowerneck 1.37079 -1.66417 -5.65885
upperneck 9.06648 -2.30531 7.76068
head 2.89513 -0.93814 3.56093
rclavicle -5.48397e-014 3.65764e-014
rhumerus -40.9372 -28.8595 -65.2393
rradius 21.9298
rwrist 41.821
rhand 1.14549 -8.0749
rfingers 7.12502
rthumb 26.6871 -36.2134
lclavicle -5.48397e-014 3.65764e-014
lhumerus -24.663 11.7045 85.4165
lradius 28.7383
lwrist -20.38
lhand -12.7685 8.4074
lfingers 7.12502
lthumb 13.3163 37.9619
rfemur -32.3962 -6.1599 26.8429
rtibia 57.2494
rfoot -15.6066 3.96752
rtoes -13.5399
lfemur -17.5546 3.48092 -15.4176
ltibia 31.3427
lfoot -7.66311 -19.2226
ltoes 7.28877
427
root 0.704711 16.4142 -20.6821 -173.844 -3.93623 -172.94
lowerback -7.89076 -3.10089 1.10632
upperback 3.50581 -4.68916 3.26488
thorax 8.33196 -2.39501 2.117
lowerneck 1.52176 -1.6776 -5.88773
upperneck 8.36385 -2.34788 7.92425
head 2.64009 -0.988325 3.65131
rclavicle 6.95746e-015 1.05356e-014
rhumerus -41.3956 -28.7686 -65.0037
rradius 22.0525
rwrist 41.3538
rhand 1.18555 -7.91558
rfingers 7.12502
rthumb 26.7254 -36.0482
lclavicle 6.95746e-015 1.05356e-014
lhumerus -24.0003 11.008 85.9146
lradius 28.9277
lwrist -20.109
lhand -12.7519 8.5634
lfingers 7.12502
lthumb 13.3323 38.1169
rfemur -33.6902 -5.8131 26.9462
rtibia 54.0067
rfoot -16.4205 3.6665
rtoes -0.859114
lfemur -17.4273 3.38872 -15.2886
ltibia 31.291
lfoot -7.76259 -19.5879
ltoes 7.73036
428
root 0.718056 16.409 -20.8583 -173.55 -4.47177 -172.994
lowerback -8.18608 -3.35697 0.872548
upperback 3.36747 -5.02054 3.41449
thorax 8.40242 -2.5722 2.34079
lowerneck 1.72691 -1.65596 -6.30129
upperneck 7.66984 -2.34224 8.05693
head 2.37962 -1.02106 3.76966
rclavicle 2.28105e-014 -2.41523e-014
rhumerus -41.8583 -28.4996 -64.9503
rradius 22.3608
rwrist 40.9885
rhand 1.08413 -7.74955
rfingers 7.12502
rthumb 26.6284 -35.8969
lclavicle 2.28105e-014 -2.41523e-014
lhumerus -23.4473 10.6 86.3019
lradius 28.9744
lwrist -19.9474
lhand -12.6756 8.68573
lfingers 7.12502
lthumb 13.4059 38.2344
rfemur -34.5742 -5.55945 26.9529
rtibia 50.4527
rfoot -16.3275 3.64814
rtoes -1.02
lfemur -16.9917 3.34194 -15.2171
ltibia 31.0034
lfoot -7.85246 -20.1208
ltoes 7.67034
429
root 0.732662 16.415 -21.0368 -173.471 -4.99827 -173.109
lowerback -8.26771 -3.57365 0.619279
upperback 3.27408 -5.28692 3.50946
thorax 8.39417 -2.71791 2.53766
lowerneck 2.08808 -1.58927 -6.00927
upperneck 6.89991 -2.25577 7.89745
head 2.0394 -0.998571 3.64799
rclavicle -8.4558e-014 4.9895e-014
rhumerus -42.3724 -28.3741 -64.8768
rradius 22.6583
rwrist 40.955
rhand 0.8881 -7.42906
rfingers 7.12502
rthumb 26.4407 -35.6048
lclavicle -8.4558e-014 4.9895e-014
lhumerus -23.0562 10.2004 86.636
lradius 29.0212
lwrist -19.8666
lhand -12.5928 8.71673
lfingers 7.12502
lthumb 13.4857 38.2601
rfemur -34.9686 -5.24299 26.7856
rtibia 46.6013
rfoot -16.0043 4.06949
rtoes -0.40976
lfemur -16.2543 3.37916 -15.1706
ltibia 30.582
lfoot -8.0066 -20.6491
ltoes 7.21377
430
root 0.747604 16.4211 -21.217 -173.657 -5.4749 -173.281
lowerback -8.09373 -3.75479 0.377559
upperback 3.25833 -5.49798 3.53418
thorax 8.31261 -2.83514 2.67622
lowerneck 2.22071 -1.57421 -6.68107
upperneck 6.20821 -2.26969 8.47943
head 1.81249 -1.0317 3.98096
rclavicle 3.65018e-014 -2.50469e-014
rhumerus -42.8185 -28.3489 -64.8213
rradius 22.7871
rwrist 41.0706
rhand 0.736699 -7.00782
rfingers 7.12502
rthumb 26.2958 -35.2053
lclavicle 3.65018e-014 -2.50469e-014
lhumerus -22.8127 9.88275 86.8865
lradius 29.0452
lwrist -19.9798
lhand -12.6404 8.55137
lfingers 7.12502
lthumb 13.4398 38.0978
rfemur -34.8661 -4.83017 26.4626
rtibia 42.5408
rfoot -16.0051 4.7229
rtoes -0.506755
lfemur -15.1035 3.53382 -15.167
ltibia 29.971
lfoot -8.17059 -21.201
ltoes 6.03759
431
root 0.760382 16.424 -21.3978 -173.923 -5.91442 -173.505
lowerback -7.88314 -3.96067 0.146129
upperback 3.27871 -5.74374 3.53542
thorax 8.24937 -2.96841 2.78085
lowerneck 2.34697 -1.49615 -6.99886
upperneck 5.50377 -2.18011 8.74594
head 1.56006 -1.0097 4.13539
rclavicle 1.42504e-014 1.02374e-014
rhumerus -43.058 -28.2359 -64.9305
rradius 22.8416
rwrist 40.8754
rhand 0.734006 -6.75786
rfingers 7.12502
rthumb 26.2932 -34.9557
lclavicle 1.42504e-014 1.02374e-014
lhumerus -22.599 9.6057 87.1005
lradius 28.9311
lwrist -20.0788
lhand -12.7484 8.45148
lfingers 7.12502
lthumb 13.3357 38.0048
rfemur -34.4885 -4.40269 26.0486
rtibia 38.3391
rfoot -15.9694 5.4785
rtoes -1.26403
lfemur -13.7688 3.62446 -15.2234
ltibia 29.2283
lfoot -8.13199 -21.7079
ltoes 5.59441
432
root 0.772471 16.4252 -21.5801 -174.061 -6.41394 -173.728
lowerback -7.83333 -4.16387 -0.0145612
upperback 3.25273 -5.99391 3.53654
thorax 8.2243 -3.09809 2.83639
lowerneck 2.63016 -1.43664 -7.08072
upperneck 4.67213 -2.10609 8.78339
head 1.2311 -0.997681 4.16177
rclavicle 4.35276e-014 -2.70596e-014
rhumerus -43.2325 -28.1368 -65.1093
rradius 22.9141
rwrist 40.4001
rhand 0.712057 -6.70495
rfingers 7.12502
rthumb 26.2722 -34.9059
lclavicle 4.35276e-014 -2.70596e-014
lhumerus -22.4025 9.3547 87.3249
lradius 28.6829
lwrist -20.231
lhand -12.6158 8.58085
lfingers 7.12502
lthumb 13.4636 38.1257
rfemur -34.0451 -3.99011 25.6
rtibia 34.0828
rfoot -15.8307 6.11321
rtoes -1.66526
lfemur -12.5581 3.53154 -15.2677
ltibia 28.4362
lfoot -7.80335 -22.1311
ltoes 6.84729
433
root 0.788192 16.4259 -21.7618 -174.008 -6.99428 -173.954
lowerback -7.94434 -4.36752 -0.180104
upperback 3.14288 -6.24232 3.55804
thorax 8.20625 -3.22512 2.90741
lowerneck 2.95176 -1.41941 -7.17385
upperneck 3.83013 -2.08746 8.81961
head 0.898712 -1.0126 4.19264
rclavicle -1.93567e-014 4.26517e-014
rhumerus -43.412 -27.9251 -65.378
rradius 23.0865
rwrist 39.8083
rhand 0.718728 -6.85001
rfingers 7.12502
rthumb 26.2786 -35.05
lclavicle -1.93567e-014 4.26517e-014
lhumerus -22.2798 9.31406 87.5294
lradius 28.3318
lwrist -20.663
lhand -12.3397 8.71707
lfingers 7.12502
lthumb 13.7297 38.2441
rfemur -33.7193 -3.47211 25.0639
rtibia 29.9285
rfoot -15.5595 6.40105
rtoes -2.1258
lfemur -11.5326 3.35551 -15.2841
ltibia 27.5453
lfoot -7.37547 -22.5732
ltoes 8.24003
